<svg xmlns="http://www.w3.org/2000/svg" width="43" height="32" viewBox="0 0 43 32"><path d="M.003 0h42.66v32H.003V0z" fill="#C00"/><path d="M0 8h42.667v16H0V8z" fill="#FF3"/><path d="M12.048 11.534s-.058 0-.09-.018c-.03-.018-.126-.11-.126-.11l-.077-.054-.07-.097s-.083-.132-.045-.235c.038-.103.102-.14.16-.17s.177-.065.177-.065.096-.042.128-.05c.032-.005.147-.035.147-.035s.032-.018.063-.03c.032-.012.077-.012.102-.018s.09-.026.127-.028c.06-.002.153.01.185.01s.14.006.183.006.204-.012.25-.012c.043 0 .076-.006.127 0s.14.036.166.05c.025.01.18.065.236.084s.198.042.262.072c.063.03.102.08.134.124s.038.088.05.12c.013.03.014.094 0 .124s-.057.092-.057.092l-.07.114-.088.072s-.064.06-.115.055c-.05-.005-.568-.097-.9-.097s-.86.097-.86.097z" fill="#C00"/><path d="M12.758 10.795c0-.156.07-.282.156-.282s.156.126.156.282c0 .155-.07.28-.156.28s-.156-.125-.156-.28z" fill="#C8B100"/><path d="M12.845 10.795c0-.143.032-.26.07-.26s.072.116.072.26c0 .142-.032.258-.07.258s-.072-.116-.072-.258z" fill="#C8B100"/><path d="M12.81 10.497c0-.054.048-.1.105-.1s.104.046.104.1c0 .054-.048.098-.105.098s-.104-.044-.104-.098z" fill="#C8B100"/><path d="M12.99 10.462v.066h-.162v-.066h.053v-.148h-.07v-.065h.07v-.065h.07v.064h.07v.064h-.07v.148h.04z" fill="#C8B100"/><path d="M13.06 10.462v.066h-.285v-.066h.106v-.148h-.07v-.065h.07v-.065h.07v.064h.07v.064h-.07v.148h.112zM12.916 11.516h-.542l-.013-.133-.024-.14-.027-.172c-.15-.196-.288-.326-.334-.298.01-.036.024-.064.053-.08.132-.08.406.11.612.42.02.03.036.058.052.086h.448c.016-.028.034-.057.053-.085.206-.31.48-.5.613-.422.03.018.042.045.053.082-.045-.027-.183.102-.333.3l-.027.172-.025.14-.012.132h-.545zM12.114 11.762c-.022-.065-.065-.122-.065-.122.22-.065.524-.105.865-.106.34 0 .648.04.867.106l-.058.103c-.02.033-.044.09-.042.09-.198-.06-.454-.09-.768-.09s-.616.038-.773.095c.003 0-.01-.036-.026-.076z" fill="#C8B100"/><path d="M12.915 12.04c.274 0 .577-.04.688-.07.075-.022.118-.055.11-.094-.004-.018-.02-.034-.04-.044-.165-.053-.46-.09-.758-.09s-.594.038-.758.09c-.022.01-.038.025-.04.044-.01.04.035.072.11.094.11.03.414.07.69.07zM13.796 11.516l-.067-.06s-.064.04-.144.027c-.08-.012-.105-.108-.105-.108s-.088.075-.16.07c-.074-.007-.122-.07-.122-.07s-.08.057-.15.05c-.07-.005-.137-.093-.137-.093s-.07.09-.14.097c-.07.005-.127-.062-.127-.062s-.032.067-.12.08c-.09.016-.166-.068-.166-.068s-.05.082-.112.103c-.06.02-.14-.03-.14-.03l-.022.05c-.01.017-.035.02-.035.02l.02.054c.22-.063.515-.103.85-.103s.64.04.86.103l.02-.06z" fill="#C8B100"/><path d="M12.917 11.224l.032.006c-.006.013-.007.027-.007.042 0 .066.056.12.126.12.055 0 .102-.035.118-.083.002 0 .012-.044.017-.044.004 0 .003.046.005.045.008.06.063.102.124.102.07 0 .125-.053.125-.12 0-.004 0-.01-.002-.013l.04-.04.02.05c-.008.015-.01.033-.01.052 0 .063.053.114.12.114.04 0 .077-.02.1-.05l.024-.033v.04c0 .04.017.075.055.08 0 0 .043.004.103-.042s.09-.084.09-.084l.005.047s-.057.095-.11.125c-.028.017-.072.034-.107.028-.036-.006-.063-.035-.076-.07-.026.017-.057.025-.09.025-.07 0-.135-.038-.16-.096-.033.035-.078.056-.13.056-.058 0-.11-.025-.142-.065-.032.03-.076.048-.124.048-.063 0-.12-.03-.15-.077-.033.046-.09.077-.15.077-.05 0-.092-.018-.125-.048-.032.04-.084.065-.14.065-.053 0-.098-.02-.13-.056-.026.058-.09.097-.16.097-.034 0-.065-.008-.09-.023-.015.034-.04.063-.077.07-.035.005-.078-.013-.107-.03-.053-.03-.114-.124-.114-.124l.008-.047s.033.04.09.085c.06.047.104.044.104.044.04-.006.055-.042.055-.08v-.04l.024.03c.022.03.058.052.1.052.066 0 .12-.05.12-.114 0-.02-.003-.036-.01-.052l.02-.05.04.04c-.002.004-.002.01-.002.013 0 .066.056.12.126.12.062 0 .116-.042.124-.102.002.002 0-.044.005-.044s.016.044.017.043c.016.047.064.08.12.08.07 0 .126-.052.126-.118 0-.015 0-.03-.006-.042l.033-.006z" fill="#C8B100"/><path d="M12.915 11.534c-.34 0-.646.04-.865.106-.015.005-.033-.006-.038-.02s.006-.03.02-.036c.22-.067.534-.11.882-.11s.663.043.883.11c.014.005.025.022.02.036s-.023.024-.037.02c-.22-.065-.527-.105-.866-.106z" fill="#C8B100"/><path d="M12.586 11.654c0-.026.022-.046.05-.046s.048.02.048.046-.022.046-.05.046-.048-.02-.048-.046z" fill="#FFF"/><path d="M12.92 11.675h-.11c-.02 0-.037-.016-.037-.035s.016-.034.036-.034h.22c.02 0 .037.016.037.034s-.017.035-.037.035h-.11z" fill="#C00"/><path d="M12.37 11.712l-.078.012c-.02.003-.04-.01-.042-.03s.01-.035.03-.038l.08-.012.08-.012c.02-.002.038.01.04.03s-.01.036-.03.04l-.08.01z" fill="#05906F"/><path d="M12.055 11.767l.035-.056.074.015-.043.063-.065-.02z" fill="#C00"/><path d="M13.146 11.654c0-.026.022-.046.05-.046s.05.02.05.046-.023.046-.05.046-.05-.02-.05-.046z" fill="#FFF"/><path d="M13.46 11.712l.078.012c.02.003.04-.01.042-.03s-.01-.035-.03-.038l-.08-.012-.08-.012c-.02-.002-.038.01-.04.03s.01.036.03.04l.08.01z" fill="#05906F"/><path d="M13.77 11.77l-.03-.06-.075.006.036.067.07-.014zM12.914 11.977c-.274 0-.523-.024-.712-.073.19-.05.437-.08.712-.08.275 0 .524.03.713.08-.19.05-.44.073-.713.073z" fill="#C00"/><path d="M13.78 11.382c.007-.02 0-.042-.015-.047s-.034.01-.04.03c-.008.022-.002.043.014.048s.032-.01.04-.03zM13.234 11.275c.002-.022-.008-.042-.024-.044s-.03.016-.034.038c-.003.022.008.042.024.044s.03-.015.034-.037zM12.598 11.275c-.002-.022.008-.042.024-.044s.03.016.034.038c.003.022-.008.042-.024.044s-.03-.015-.034-.037zM12.052 11.382c-.007-.02 0-.042.015-.047s.034.01.04.03c.008.022.002.043-.014.048s-.033-.01-.04-.03zM12.914 10.96l-.097.058.072.156.024.016.025-.016.07-.156-.096-.058z" fill="#C8B100"/><path d="M12.702 11.196l.044.064.15-.047.017-.02-.016-.023-.15-.044-.045.07zM13.128 11.196l-.044.064-.15-.047-.017-.02.016-.023.15-.044.045.07zM12.284 11.03l-.076.07.097.13.026.01.02-.02.034-.156-.1-.036z" fill="#C8B100"/><path d="M12.125 11.286l.057.054.138-.075.01-.024-.02-.017-.157-.014-.028.076zM12.542 11.203l-.03.07-.157-.013-.02-.018.01-.024.14-.073.057.06zM11.973 11.307l-.013.075-.158.016-.024-.014.005-.026.12-.1.07.047z" fill="#C8B100"/><path d="M12.277 11.242c0-.03.025-.053.055-.053s.055.023.055.052c0 .03-.025.053-.055.053s-.055-.024-.055-.053zM13.547 11.03l.076.07-.097.13-.026.01-.02-.02-.033-.156.1-.036z" fill="#C8B100"/><path d="M13.705 11.286l-.057.054-.138-.075-.01-.024.02-.017.158-.014.027.076zM13.29 11.203l.03.07.156-.013.02-.018-.01-.024-.138-.073-.058.06zM13.836 11.307l.013.075.157.016.024-.014-.004-.026-.12-.1-.07.047zM12.86 11.192c0-.03.024-.053.054-.053s.055.022.055.052-.026.053-.056.053-.055-.024-.055-.053z" fill="#C8B100"/><path d="M13.444 11.242c0-.03.025-.053.055-.053s.054.023.054.052c0 .03-.025.053-.055.053s-.056-.024-.056-.053zM11.76 11.394c-.002 0-.043-.054-.074-.082-.022-.02-.076-.036-.076-.036 0-.01.03-.033.066-.033.02 0 .04.008.05.023l.005-.022s.028.005.04.036c.014.032.006.08.006.08s-.005.023-.015.035z" fill="#C8B100"/><path d="M11.762 11.367c.013-.014.04-.01.06.006s.026.042.013.056c-.013.013-.04.01-.06-.007s-.026-.043-.013-.056zM14.05 11.394s.043-.054.074-.082c.02-.02.076-.036.076-.036 0-.01-.032-.033-.066-.033-.02 0-.04.008-.05.023l-.005-.022s-.028.005-.04.036c-.013.032-.005.08-.005.08s.005.023.015.035z" fill="#C8B100"/><path d="M14.05 11.367c-.012-.014-.04-.01-.06.006s-.025.042-.012.056c.013.013.04.01.06-.007s.027-.043.014-.056zM11.664 12.677h2.514v-.66h-2.514v.66zM11.927 13.116c.016-.006.027-.007.047-.007h1.883c.02 0 .036.002.05.008-.063-.022-.11-.08-.11-.15s.05-.128.115-.15c-.015.005-.037.01-.055.01h-1.884c-.02 0-.037-.002-.053-.007l.01.003c.067.02.106.08.106.146 0 .062-.043.126-.11.146z" fill="#C8B100"/><path d="M11.974 13.108h1.883c.064 0 .115.04.115.088s-.052.088-.115.088h-1.883c-.064 0-.116-.04-.116-.088s.052-.088.116-.088zM11.974 12.677h1.884c.063 0 .116.034.116.075s-.052.075-.116.075h-1.884c-.064 0-.116-.034-.116-.075s.052-.075.116-.075z" fill="#C8B100"/><path d="M14.676 23.77c-.174 0-.33-.037-.443-.098-.113-.058-.267-.093-.436-.093s-.327.035-.44.093c-.115.06-.272.097-.444.097-.174 0-.33-.04-.443-.1-.112-.056-.263-.09-.428-.09-.17 0-.322.032-.435.09-.114.062-.272.1-.446.1v.272c.174 0 .333-.04.447-.1.113-.058.265-.092.435-.092.165 0 .315.034.428.09.114.06.27.102.443.102.172 0 .33-.038.443-.097s.27-.095.44-.095c.17 0 .324.036.437.094.114.06.267.098.44.098l.003-.272z" fill="#0076BC"/><path d="M14.676 24.042c-.174 0-.33-.037-.443-.098-.113-.058-.267-.094-.436-.094s-.327.036-.44.095c-.115.06-.272.097-.444.097-.174 0-.33-.04-.443-.102-.112-.056-.263-.09-.428-.09-.17 0-.322.033-.435.092-.114.06-.272.1-.446.1v.272c.174 0 .333-.04.447-.1s.265-.09.435-.09c.165 0 .315.033.428.09.114.06.27.1.443.1.172 0 .33-.038.443-.097s.27-.094.44-.094c.17 0 .324.036.437.094.114.06.267.097.44.097l.003-.272z" fill="#CCC"/><path d="M14.676 24.313c-.174 0-.33-.037-.443-.097-.113-.058-.267-.094-.436-.094s-.327.036-.44.094c-.115.06-.272.097-.444.097-.174 0-.33-.04-.443-.1-.112-.057-.263-.09-.428-.09-.17 0-.322.032-.435.09s-.272.1-.446.1v.272c.174 0 .333-.04.447-.1.113-.057.265-.09.435-.09.165 0 .315.034.428.09.114.06.27.1.443.1.172 0 .33-.037.443-.096s.27-.095.44-.095c.17 0 .324.035.437.093.114.06.267.097.44.097l.003-.272z" fill="#0076BC"/><path d="M14.674 24.856c-.174 0-.327-.037-.44-.098-.114-.058-.268-.093-.437-.093s-.327.035-.44.094c-.115.058-.272.096-.444.096-.174 0-.33-.04-.443-.102-.112-.055-.263-.09-.428-.09-.17 0-.322.034-.435.092-.114.06-.272.1-.446.1v-.27c.174 0 .333-.042.447-.102.113-.058.265-.09.435-.09.165 0 .315.033.428.088.114.06.27.1.443.1.172 0 .33-.036.443-.095s.27-.094.44-.094c.17 0 .324.035.437.093.114.06.27.097.443.097l-.002.272z" fill="#CCC"/><path d="M14.674 25.128c-.174 0-.327-.037-.44-.097-.114-.057-.268-.093-.437-.093s-.327.036-.44.095c-.115.06-.272.097-.444.097-.174 0-.33-.042-.443-.103-.112-.056-.263-.09-.428-.09-.17 0-.322.033-.435.092-.114.06-.272.098-.446.098v-.27c.174 0 .333-.04.447-.102.113-.058.265-.09.435-.09.165 0 .315.033.428.088.114.06.27.1.443.1.172 0 .33-.037.443-.096s.27-.093.44-.093c.17 0 .324.035.437.093.114.06.268.097.443.097l-.002.272z" fill="#0076BC"/><path d="M11.927 22.653c.006.023.014.045.014.07 0 .165-.142.296-.316.296h2.588c-.174 0-.317-.132-.317-.297 0-.024.005-.047.01-.07-.014.005-.032.006-.05.006h-1.882c-.015 0-.033-.003-.047-.007z" fill="#C8B100"/><path d="M11.974 22.482h1.883c.064 0 .115.04.115.09s-.052.087-.115.087h-1.883c-.064 0-.116-.04-.116-.09s.052-.088.116-.088zM11.63 23.677h2.58v-.658h-2.58v.657z" fill="#C8B100"/><path d="M11.427 20.15c-.255.148-.428.3-.4.375.013.07.094.12.21.198.182.127.293.354.206.458.15-.12.247-.303.247-.505 0-.212-.1-.402-.264-.524z" fill="#C00"/><path d="M11.998 22.375h1.834V13.39h-1.834v8.985z" fill="#CCC"/><path d="M15.706 16.75c-.4-.164-1.08-.287-1.86-.313-.27.002-.57.027-.88.08-1.097.182-1.932.62-1.866.977 0 .008.004.023.005.03 0 0-.41-.927-.418-.962-.073-.396.854-.882 2.07-1.085.383-.064.756-.088 1.08-.085.778 0 1.455.1 1.862.25l.004 1.11z" fill="#C00"/><path d="M11.995 17.88c-.508-.037-.856-.173-.896-.386-.032-.17.14-.357.447-.527.137.015.29.034.45.034l-.002.88zM13.835 17.192c.318.048.556.127.675.224l.01.02c.058.116-.22.363-.688.64l.003-.884z" fill="#C00"/><path d="M10.856 19.612c-.048-.145.448-.435 1.15-.693.32-.116.584-.235.91-.38.974-.43 1.694-.924 1.605-1.105l-.01-.018c.053.042.133.93.133.93.09.164-.57.65-1.466 1.08-.287.137-.893.36-1.18.46-.51.178-1.02.513-.972.637l-.17-.913z" fill="#C00"/><path d="M11.872 16.32c.224-.082.37-.178.3-.355-.046-.112-.162-.134-.335-.07l-.307.11.276.682c.03-.014.06-.028.09-.04s.064-.02.096-.028l-.12-.3zm-.134-.33l.077-.027c.064-.024.137.01.17.09.023.06.017.128-.057.175-.024.015-.052.026-.08.037l-.11-.274zM12.588 15.707c-.032.01-.064.018-.097.025s-.065.01-.098.014l.16.708.494-.1c-.006-.013-.014-.028-.016-.042l-.004-.046c-.087.025-.18.052-.295.075l-.14-.632zM13.58 16.317c.093-.257.205-.503.317-.752-.02.003-.04.006-.06.007s-.042.002-.062 0c-.06.182-.133.362-.21.542-.093-.17-.196-.337-.274-.51-.038.006-.077.01-.116.014s-.08.002-.117.002c.143.232.28.464.41.704.018-.003.037-.008.057-.01.018 0 .037 0 .056.002zM14.613 15.773c.017-.034.035-.068.054-.1-.027-.025-.108-.062-.204-.072-.202-.02-.318.07-.33.193-.03.255.373.233.354.402-.008.073-.086.103-.168.095-.093-.01-.16-.06-.172-.135l-.025-.002c-.013.045-.033.087-.053.13.06.038.135.06.21.067.205.02.362-.062.376-.197.027-.242-.38-.256-.364-.4.007-.06.053-.098.158-.088.075.008.122.048.142.107l.02.002z" fill="#C8B100"/><path d="M29.745 11.33s-.083.086-.143.1c-.06.01-.137-.055-.137-.055s-.055.057-.12.072c-.068.015-.16-.075-.16-.075s-.065.09-.122.112c-.057.02-.127-.027-.127-.027s-.025.045-.073.07c-.02.01-.054-.006-.054-.006l-.068-.04-.077-.083-.07-.027s-.032-.103-.035-.12l-.01-.065c-.013-.073.1-.158.26-.195.094-.022.174-.02.234-.002.064-.055.2-.093.36-.093.146 0 .273.03.344.08.07-.05.197-.08.342-.08.16 0 .296.038.36.093.06-.018.14-.02.233.002.16.036.274.12.26.195l-.01.064-.035.12-.07.027-.077.082-.065.04s-.034.017-.054.007c-.047-.024-.073-.07-.073-.07s-.07.048-.127.027c-.058-.02-.12-.112-.12-.112s-.093.09-.16.075c-.068-.015-.122-.072-.122-.072s-.077.066-.137.054c-.06-.013-.142-.1-.142-.1z" fill="#C00"/><path d="M29.588 10.852c0-.122.07-.22.155-.22s.156.098.156.22c0 .123-.07.222-.157.222s-.155-.1-.155-.222z" fill="#C8B100"/><path d="M29.675 10.852c0-.112.032-.203.072-.203s.07.09.07.202c0 .113-.03.204-.07.204s-.072-.09-.072-.204zM28.945 11.762c-.023-.065-.066-.122-.066-.122.22-.065.525-.105.865-.106.34 0 .648.04.868.106l-.06.103c-.018.033-.043.09-.04.09-.2-.06-.455-.09-.77-.09s-.615.038-.773.095c.002 0-.01-.036-.027-.076h.002z" fill="#C8B100"/><path d="M29.745 12.04c.274 0 .577-.04.688-.07.074-.022.118-.055.11-.094-.004-.018-.02-.034-.042-.044-.163-.053-.458-.09-.756-.09s-.594.038-.758.09c-.02.01-.038.025-.04.044-.01.04.034.072.11.094.11.03.414.07.688.07z" fill="#C8B100"/><path d="M30.41 10.95c0-.026.023-.048.05-.048s.052.022.052.05c0 .026-.023.047-.05.047s-.052-.022-.052-.05z" fill="#FFF"/><path d="M30.626 11.516l-.067-.06s-.065.04-.145.027c-.08-.012-.105-.108-.105-.108s-.09.075-.162.07c-.073-.007-.12-.07-.12-.07s-.08.057-.15.05c-.07-.005-.138-.093-.138-.093s-.07.09-.14.097c-.07.005-.127-.062-.127-.062s-.032.067-.12.08c-.09.016-.167-.068-.167-.068s-.05.082-.11.103c-.06.02-.14-.03-.14-.03l-.023.05c-.01.017-.035.02-.035.02l.02.054c.218-.063.515-.103.85-.103s.64.04.858.103l.023-.06z" fill="#C8B100"/><path d="M28.97 10.95c0-.026.024-.048.052-.048s.05.022.05.05c0 .026-.022.047-.05.047s-.05-.022-.05-.05z" fill="#FFF"/><path d="M29.746 11.224l.032.006c-.005.013-.006.027-.006.042 0 .066.056.12.126.12.056 0 .103-.035.12-.083 0 0 .01-.044.016-.044s.004.046.005.045c.007.06.062.102.124.102.07 0 .126-.053.126-.12v-.013l.04-.04.02.05c-.008.015-.012.033-.012.052 0 .063.054.114.12.114.042 0 .08-.02.1-.05l.025-.033v.04c0 .04.017.075.055.08 0 0 .044.004.103-.042s.092-.084.092-.084l.003.047s-.058.095-.11.125c-.03.017-.072.034-.107.028-.037-.006-.063-.035-.076-.07-.026.017-.057.025-.09.025-.07 0-.135-.038-.16-.096-.033.035-.078.056-.132.056-.057 0-.11-.025-.14-.065-.033.03-.077.048-.124.048-.062 0-.12-.03-.15-.077-.033.046-.088.077-.15.077-.05 0-.092-.018-.124-.048-.033.04-.084.065-.14.065-.054 0-.1-.02-.132-.056-.025.058-.09.097-.16.097-.033 0-.064-.008-.09-.023-.014.034-.04.063-.076.07-.035.005-.078-.013-.107-.03-.052-.03-.115-.124-.115-.124l.008-.047s.032.04.09.085c.06.047.104.044.104.044.038-.006.055-.042.055-.08v-.04l.024.03c.022.03.058.052.1.052.067 0 .12-.05.12-.114 0-.02-.003-.036-.012-.052l.02-.05.04.04v.013c0 .066.055.12.124.12.062 0 .117-.042.125-.102.003.002.002-.044.006-.044.006 0 .016.044.017.043.016.047.064.08.12.08.07 0 .126-.052.126-.118 0-.015-.002-.03-.007-.042l.033-.006z" fill="#C8B100"/><path d="M29.745 11.534c-.34 0-.646.04-.865.106-.015.005-.033-.006-.038-.02s.006-.03.02-.036c.22-.067.534-.11.883-.11s.663.043.883.11c.015.005.025.022.02.036s-.022.024-.037.02c-.22-.065-.525-.105-.865-.106z" fill="#C8B100"/><path d="M29.416 11.654c0-.026.022-.046.05-.046s.05.02.05.046-.023.046-.05.046-.05-.02-.05-.046z" fill="#FFF"/><path d="M29.75 11.675h-.11c-.02 0-.038-.016-.038-.035s.016-.034.037-.034h.22c.02 0 .036.016.036.034s-.016.035-.037.035h-.112z" fill="#C00"/><path d="M29.2 11.712l-.077.012c-.02.003-.04-.01-.042-.03s.01-.035.03-.038l.08-.012.08-.012c.02-.002.04.01.042.03s-.01.036-.03.04l-.08.01z" fill="#05906F"/><path d="M28.885 11.767l.035-.056.075.015-.043.063-.066-.02z" fill="#C00"/><path d="M29.976 11.654c0-.026.022-.046.05-.046s.05.02.05.046-.023.046-.05.046-.05-.02-.05-.046z" fill="#FFF"/><path d="M30.29 11.712l.078.012c.02.003.038-.01.042-.03s-.01-.035-.03-.038l-.08-.012-.08-.012c-.02-.002-.038.01-.04.03s.01.036.03.04l.08.01z" fill="#05906F"/><path d="M30.6 11.77l-.03-.06-.075.006.037.067.068-.014zM29.745 11.977c-.274 0-.523-.024-.712-.073.19-.05.438-.08.712-.08.275 0 .524.03.713.08-.19.05-.438.073-.713.073z" fill="#C00"/><path d="M30.61 11.382c.007-.02 0-.042-.015-.047s-.033.01-.04.03c-.008.022 0 .043.014.048s.033-.01.04-.03zM30.063 11.275c.003-.022-.008-.042-.024-.044s-.032.016-.035.038c-.003.022.008.042.024.044s.03-.015.033-.037zM29.43 11.275c-.004-.022.007-.042.023-.044s.03.016.034.038c.002.022-.008.042-.024.044s-.03-.015-.034-.037zM28.882 11.382c-.008-.02 0-.042.014-.047s.034.01.04.03c.008.022.002.043-.013.048s-.034-.01-.04-.03zM29.745 10.96l-.097.058.072.156.025.016.025-.016.072-.156-.097-.058z" fill="#C8B100"/><path d="M29.532 11.196l.044.064.15-.047.017-.02-.016-.023-.15-.044-.045.07zM29.958 11.196l-.044.064-.15-.047-.017-.02.016-.023.15-.044.045.07zM29.115 11.03l-.076.07.096.13.026.01.02-.02.033-.156-.1-.036z" fill="#C8B100"/><path d="M28.955 11.286l.057.054.138-.075.01-.024-.02-.017-.157-.014-.028.076zM29.37 11.203l-.028.07-.158-.013-.02-.018.01-.024.138-.073.058.06zM28.803 11.307l-.013.075-.158.016-.024-.014.006-.026.12-.1.07.047z" fill="#C8B100"/><path d="M29.107 11.242c0-.03.025-.053.055-.053s.055.023.055.052c0 .03-.025.053-.055.053s-.055-.024-.055-.053zM30.376 11.03l.076.07-.097.13-.026.01-.02-.02-.034-.156.1-.036z" fill="#C8B100"/><path d="M30.537 11.286l-.057.054-.138-.075-.01-.024.02-.017.157-.014.027.076zM30.12 11.203l.03.07.157-.013.02-.018-.01-.024-.14-.073-.057.06zM30.667 11.307l.013.075.158.016.024-.014-.006-.026-.118-.1-.07.047zM29.69 11.192c0-.03.024-.053.055-.053s.055.022.055.052-.025.053-.055.053-.055-.024-.055-.053z" fill="#C8B100"/><path d="M30.274 11.242c0-.03.025-.053.055-.053s.055.023.055.052c0 .03-.025.053-.056.053s-.056-.024-.056-.053zM29.64 10.6c0-.055.048-.1.105-.1s.105.045.105.1c0 .054-.047.098-.105.098s-.104-.044-.104-.098z" fill="#C8B100"/><path d="M29.82 10.565v.065h-.162v-.065h.053v-.147h-.07v-.066h.07v-.065h.07v.065h.07v.066h-.07v.147h.04z" fill="#C8B100"/><path d="M29.89 10.565v.065h-.285v-.065h.106v-.147h-.07v-.066h.07v-.065h.07v.065h.07v.066h-.07v.147h.11zM28.59 11.394c-.002 0-.044-.054-.075-.082-.022-.02-.076-.036-.076-.036 0-.01.03-.033.065-.033.02 0 .04.008.05.023l.004-.022s.027.005.04.036c.012.032.004.08.004.08s-.005.023-.015.035z" fill="#C8B100"/><path d="M28.592 11.367c.013-.014.04-.01.06.006s.026.042.013.056c-.013.013-.04.01-.06-.007s-.026-.043-.013-.056zM30.88 11.394c.002 0 .043-.054.074-.082.022-.02.076-.036.076-.036 0-.01-.032-.033-.066-.033-.02 0-.04.008-.05.023l-.004-.022s-.028.005-.04.036c-.013.032-.005.08-.005.08s.005.023.015.035z" fill="#C8B100"/><path d="M30.882 11.367c-.013-.014-.04-.01-.06.006s-.027.042-.014.056c.013.013.04.01.06-.007s.026-.043.013-.056zM28.49 12.677h2.514v-.66H28.49v.66zM30.74 13.116c-.015-.006-.027-.007-.046-.007H28.81c-.018 0-.035.002-.05.008.064-.022.11-.08.11-.15s-.05-.128-.116-.15c.016.005.037.01.055.01h1.883c.02 0 .037-.002.053-.007l-.01.003c-.068.02-.107.08-.107.146 0 .062.042.126.11.146z" fill="#C8B100"/><path d="M28.81 13.108h1.884c.063 0 .115.04.115.088s-.053.088-.116.088H28.81c-.063 0-.115-.04-.115-.088s.052-.088.116-.088zM28.81 12.677h1.884c.063 0 .115.034.115.075s-.053.075-.116.075H28.81c-.064 0-.115-.034-.115-.075s.052-.075.115-.075z" fill="#C8B100"/><path d="M27.99 23.77c.175 0 .33-.037.444-.098.113-.058.267-.093.436-.093s.328.035.44.093c.114.06.272.097.443.097.173 0 .33-.04.443-.1.112-.056.263-.09.428-.09.17 0 .322.032.435.09.113.062.27.1.445.1v.272c-.173 0-.332-.04-.446-.1-.115-.058-.266-.092-.436-.092-.165 0-.316.034-.428.09-.114.06-.27.102-.443.102-.17 0-.33-.038-.442-.097s-.27-.095-.44-.095c-.17 0-.323.036-.436.094-.114.06-.267.098-.44.098l-.004-.272z" fill="#0076BC"/><path d="M27.99 24.042c.175 0 .33-.037.444-.098.113-.058.267-.094.436-.094s.328.036.44.095c.114.06.272.097.443.097.173 0 .33-.04.443-.102.112-.056.263-.09.428-.09.17 0 .322.033.435.092.113.06.27.1.445.1v.272c-.173 0-.332-.04-.446-.1s-.266-.09-.436-.09c-.165 0-.316.033-.428.09-.114.06-.27.1-.443.1-.17 0-.33-.038-.442-.097s-.27-.094-.44-.094c-.17 0-.323.036-.436.094-.114.06-.267.097-.44.097l-.004-.272z" fill="#CCC"/><path d="M27.99 24.313c.175 0 .33-.037.444-.097.113-.058.267-.094.436-.094s.328.036.44.094c.114.06.272.097.443.097.173 0 .33-.04.443-.1.112-.057.263-.09.428-.09.17 0 .322.032.435.09s.27.1.445.1v.272c-.173 0-.332-.04-.446-.1-.115-.057-.266-.09-.436-.09-.165 0-.316.034-.428.09-.114.06-.27.1-.443.1-.17 0-.33-.037-.442-.096s-.27-.095-.44-.095c-.17 0-.323.035-.436.093-.114.06-.267.097-.44.097l-.004-.272z" fill="#0076BC"/><path d="M27.994 24.856c.174 0 .326-.037.44-.098.114-.058.268-.093.437-.093s.33.035.442.094c.113.058.27.096.442.096.173 0 .33-.04.443-.102.112-.055.263-.09.428-.09.17 0 .322.034.435.092.114.06.272.1.446.1v-.27c-.173 0-.332-.042-.446-.102-.114-.058-.265-.09-.435-.09-.165 0-.316.033-.428.088-.114.06-.27.1-.443.1-.17 0-.33-.036-.442-.095s-.27-.094-.44-.094c-.17 0-.324.035-.437.093-.114.06-.27.097-.443.097l.003.272z" fill="#CCC"/><path d="M27.994 25.128c.174 0 .326-.037.44-.097.114-.057.268-.093.437-.093s.33.036.442.095c.113.06.27.097.442.097.173 0 .33-.042.443-.103.112-.056.263-.09.428-.09.17 0 .322.033.435.092.114.06.272.098.446.098v-.27c-.173 0-.332-.04-.446-.102-.114-.058-.265-.09-.435-.09-.165 0-.316.033-.428.088-.114.06-.27.1-.443.1-.17 0-.33-.037-.442-.096s-.27-.093-.44-.093c-.17 0-.324.035-.437.093-.114.06-.27.097-.442.097l.002.272z" fill="#0076BC"/><path d="M30.74 22.653c-.006.023-.014.045-.014.07 0 .165.142.296.316.296h-2.587c.174 0 .316-.132.316-.297 0-.024-.004-.047-.01-.07.015.005.033.006.05.006h1.883c.015 0 .033-.003.046-.007z" fill="#C8B100"/><path d="M28.81 22.482h1.884c.063 0 .115.04.115.09s-.053.087-.116.087H28.81c-.063 0-.115-.04-.115-.09s.052-.088.116-.088zM28.458 23.677h2.58v-.658h-2.58v.657z" fill="#C8B100"/><path d="M31.24 20.15c.257.148.43.3.402.375-.014.07-.095.12-.21.198-.183.127-.295.354-.208.458-.15-.12-.246-.303-.246-.505 0-.212.1-.402.263-.524z" fill="#C00"/><path d="M28.835 22.375h1.834V13.39h-1.835v8.985z" fill="#CCC"/><path d="M26.962 16.75c.4-.164 1.08-.287 1.86-.313.27.002.57.027.88.08 1.097.182 1.932.62 1.866.977 0 .008-.003.023-.005.03 0 0 .41-.927.418-.962.075-.396-.852-.882-2.07-1.085-.38-.064-.754-.088-1.077-.085-.78 0-1.456.1-1.864.25l-.006 1.11z" fill="#C00"/><path d="M30.673 17.88c.51-.037.856-.173.895-.386.032-.17-.14-.357-.447-.527-.136.015-.29.034-.45.034l.003.88zM28.833 17.192c-.318.048-.556.127-.676.224l-.01.02c-.057.116.222.363.69.64l-.004-.884z" fill="#C00"/><path d="M31.812 19.612c.048-.145-.448-.435-1.15-.693-.32-.116-.584-.235-.91-.38-.975-.43-1.694-.924-1.605-1.105l.01-.018c-.052.042-.133.93-.133.93-.09.164.57.65 1.465 1.08.286.137.892.36 1.178.46.51.178 1.02.513.974.637l.17-.913z" fill="#C00"/><path d="M28.105 16.357c.07-.263.16-.518.247-.775-.02.005-.04.01-.06.012l-.06.006c-.043.185-.1.37-.16.557-.11-.163-.227-.32-.32-.485-.04.008-.078.017-.116.023s-.078.008-.117.012c.163.22.32.44.473.667l.056-.014c.017-.002.036-.002.055-.003zM28.802 15.587c-.034.002-.067.004-.1.004s-.067-.003-.1-.006l-.014.724.506.01c-.003-.016-.006-.032-.006-.047s.005-.03.007-.044c-.09.006-.19.012-.305.01l.012-.647zM29.597 15.706c.08.007.16.02.237.035 0-.014-.004-.03-.003-.045s.008-.03.012-.044l-.685-.056c.002.015.004.03.003.045 0 .015-.007.03-.01.044.07-.002.153-.002.247.006l-.06.65c.033.002.067 0 .1.004l.1.013.06-.65zM29.877 16.42c.033.004.066.008.1.015s.063.017.095.026l.08-.332.01.002c.02.046.044.1.056.134l.102.25.12.02c.04.01.077.02.116.032l-.035-.075c-.054-.112-.11-.225-.158-.34.126.006.224-.04.248-.14.017-.072-.01-.127-.077-.174-.05-.035-.144-.053-.205-.067l-.276-.06-.173.71zm.355-.613c.08.018.18.03.18.12 0 .024-.004.04-.007.054-.026.107-.106.144-.24.104l.068-.277zM31.182 16.636c-.006.078-.02.155-.035.237.035.016.07.03.102.05l.095.06.068-.817-.046-.02-.043-.028-.72.457c.02.01.04.018.058.028s.034.022.053.032c.06-.05.124-.092.197-.146l.27.147zm-.204-.186l.24-.155-.03.27-.21-.115z" fill="#C8B100"/><path d="M21.26 7.076c.75 0 1.418.11 1.852.283.25.11.583.194.948.243.278.037.543.045.773.027.308-.006.753.084 1.198.28.37.163.677.362.88.554l-.176.157-.05.448-.486.555-.242.206-.574.46-.293.023-.09.254-3.714-.435-3.725.435-.088-.254-.294-.024-.574-.46-.242-.207-.485-.555-.05-.447-.178-.156c.204-.192.512-.39.88-.554.444-.196.89-.286 1.197-.28.23.018.495.01.773-.027.366-.05.7-.132.948-.244.435-.173 1.065-.284 1.814-.284z" fill="#C00"/><path d="M21.32 11.98c-1.385-.003-2.624-.167-3.51-.433-.064-.02-.098-.08-.094-.14 0-.06.032-.114.095-.133.886-.266 2.125-.43 3.51-.432 1.382.002 2.62.166 3.506.432.063.02.095.073.094.133.003.06-.03.12-.094.14-.885.266-2.123.43-3.507.432z" fill="#C8B100"/><path d="M21.315 11.797c-1.25-.002-2.377-.146-3.237-.368.86-.223 1.988-.36 3.237-.362 1.248.002 2.383.138 3.242.36-.86.223-1.994.367-3.242.37z" fill="#C00"/><path d="M21.31 10.84c-1.4.004-2.658.18-3.543.452.073-.035.067-.125-.025-.36-.11-.286-.283-.273-.283-.273.977-.29 2.338-.47 3.854-.473 1.516.002 2.888.183 3.866.472 0 0-.172-.013-.283.27-.09.237-.098.327-.025.362-.885-.272-2.165-.448-3.565-.45z" fill="#C8B100"/><path d="M21.315 10.187c-1.515.002-2.877.183-3.855.472-.065.02-.134-.007-.155-.07s.014-.132.08-.152c.98-.3 2.378-.49 3.93-.494 1.553.003 2.955.192 3.937.494.065.02.1.09.08.153s-.09.088-.156.07c-.978-.29-2.345-.47-3.86-.473z" fill="#C8B100"/><path d="M20.234 10.53c0-.064.055-.116.123-.116s.124.053.124.117c0 .065-.054.118-.123.118s-.123-.053-.123-.117z" fill="#FFF"/><path d="M21.318 10.623h-.37c-.07 0-.126-.052-.126-.117s.055-.117.124-.117h.75c.067 0 .123.052.123.116s-.058.117-.126.117h-.375z" fill="#C00"/><path d="M19.455 10.725l-.267.03c-.068.01-.13-.037-.14-.1s.04-.123.108-.13l.54-.064c.07-.007.13.038.14.102s-.042.123-.11.13l-.27.033z" fill="#05906F"/><path d="M18.372 10.748c0-.065.055-.117.123-.117s.124.054.124.118c0 .065-.056.117-.125.117s-.123-.053-.123-.117z" fill="#FFF"/><path d="M17.547 10.96l.138-.18.38.05-.304.22-.213-.09z" fill="#C00"/><path d="M23.18 10.725l.268.03c.068.01.13-.037.14-.1s-.04-.123-.108-.13l-.54-.064c-.07-.007-.13.038-.14.102s.042.123.11.13l.272.033z" fill="#05906F"/><path d="M22.155 10.53c0-.064.055-.116.124-.116s.123.053.123.117c0 .065-.055.118-.124.118s-.125-.053-.125-.117zM24.017 10.748c0-.065.055-.117.124-.117s.125.054.125.118c0 .065-.055.117-.124.117s-.123-.053-.123-.117z" fill="#FFF"/><path d="M25.09 10.96l-.138-.18-.38.05.304.22.214-.09z" fill="#C00"/><path d="M18.518 8.057l.157.125.235-.383c-.255-.157-.43-.428-.43-.736 0-.035.003-.07.007-.103.025-.488.62-.892 1.377-.892.393 0 .747.107.997.28.008-.076.015-.14.025-.21-.275-.16-.632-.257-1.02-.257-.87 0-1.552.495-1.585 1.08-.003.035-.005.07-.005.104 0 .312.143.593.368.79l-.125.203z" fill="#C8B100"/><path d="M18.528 8.06c-.297-.22-.48-.522-.48-.854 0-.382.25-.723.63-.95-.235.19-.378.432-.398.704-.003.034-.005.07-.005.103 0 .312.143.593.368.79l-.115.208z" fill="#C8B100"/><path d="M15.91 8.448c-.167-.186-.27-.427-.27-.69 0-.16.038-.31.104-.446.24-.494.994-.854 1.89-.854.244 0 .478.026.693.076-.048.052-.085.11-.122.167-.18-.034-.37-.053-.57-.053-.82 0-1.507.32-1.706.75-.054.11-.084.232-.084.36 0 .263.123.498.315.658l-.296.485-.16-.127.205-.325z" fill="#C8B100"/><path d="M16.213 6.823c-.216.136-.38.303-.47.49-.065.134-.102.286-.102.445 0 .263.103.504.27.69l-.18.293c-.174-.22-.274-.48-.274-.755 0-.474.302-.888.757-1.162zM21.305 5.783c.2 0 .37.13.41.308.027.157.043.334.047.523v.058c0 .023.004.047.004.07.007.397.064.747.144.96l-.606.58-.612-.58c.08-.213.137-.563.145-.96 0-.023.005-.047.005-.07v-.057c.002-.19.02-.367.046-.522.04-.175.218-.307.417-.307z" fill="#C8B100"/><path d="M21.305 5.972c.103 0 .19.066.212.157.025.146.04.315.044.493v.055c0 .022.004.044.004.067.006.375.06.705.137.908l-.398.378-.4-.377c.076-.203.13-.533.137-.908 0-.022.003-.045.004-.067v-.055c.002-.178.018-.346.044-.494.02-.092.115-.158.218-.158zM24.088 8.057l-.157.125-.234-.383c.255-.157.43-.428.43-.736 0-.035-.003-.07-.007-.103-.025-.488-.622-.892-1.378-.892-.393 0-.748.107-.997.28-.007-.076-.013-.14-.024-.21.276-.16.633-.257 1.023-.257.87 0 1.55.495 1.584 1.08.003.035.005.07.005.104 0 .312-.142.593-.368.79l.125.203z" fill="#C8B100"/><path d="M24.078 8.06c.297-.22.48-.522.48-.854 0-.382-.25-.723-.628-.95.234.19.376.432.397.704.003.034.005.07.005.103 0 .312-.142.593-.368.79l.115.208z" fill="#C8B100"/><path d="M26.7 8.448c.165-.186.267-.427.267-.69 0-.16-.037-.31-.103-.446-.24-.494-.995-.854-1.89-.854-.245 0-.48.026-.694.076.048.052.086.11.122.167.178-.034.37-.053.57-.053.82 0 1.508.32 1.706.75.053.11.083.232.083.36 0 .263-.122.498-.314.658l.297.485.16-.127-.204-.325z" fill="#C8B100"/><path d="M26.394 6.823c.216.136.38.303.47.49.066.134.103.286.103.445 0 .263-.102.504-.268.69l.18.293c.172-.22.27-.48.27-.755 0-.474-.3-.888-.756-1.162z" fill="#C8B100"/><path d="M21.09 7.776c0-.112.096-.203.215-.203s.215.09.215.203c0 .113-.096.204-.215.204s-.215-.09-.215-.204z" fill="#FFF"/><path d="M21.09 7.378c0-.112.096-.204.215-.204s.215.09.215.204c0 .112-.096.203-.215.203s-.215-.09-.215-.202zM21.133 6.95c0-.09.077-.163.172-.163s.17.072.17.162-.076.16-.17.16c-.095 0-.172-.072-.172-.16zM21.182 6.562c0-.064.055-.117.124-.117s.123.053.123.117c0 .065-.056.117-.124.117s-.124-.054-.124-.118zM21.206 6.224c0-.052.044-.094.1-.094s.098.042.098.094-.044.094-.1.094-.098-.042-.098-.094z" fill="#FFF"/><path d="M21.323 9l.14.026c-.023.056-.027.118-.027.183 0 .29.25.524.555.524.247 0 .456-.152.528-.363.008.007.053-.19.076-.187.02.002.017.203.025.2.035.265.277.444.55.444.305 0 .553-.234.553-.525 0-.022 0-.043-.004-.064l.173-.172.093.22c-.037.068-.052.145-.052.228 0 .277.237.5.53.5.183 0 .344-.087.44-.222l.11-.14v.172c0 .174.073.33.243.358 0 0 .195.012.454-.19s.402-.372.402-.372l.022.203s-.215.332-.45.468c-.127.076-.32.154-.475.128-.164-.026-.28-.157-.34-.308-.117.07-.255.108-.402.108-.316 0-.6-.173-.713-.435-.146.157-.348.254-.586.254-.254 0-.485-.114-.63-.288-.143.13-.336.21-.55.21-.28 0-.53-.138-.67-.345-.142.207-.39.344-.67.344-.214 0-.41-.08-.55-.21-.146.174-.377.287-.63.287-.238 0-.44-.097-.586-.254-.112.26-.397.435-.713.435-.146 0-.283-.04-.4-.108-.06.15-.177.282-.34.308-.154.025-.35-.053-.477-.127-.234-.134-.45-.467-.45-.467l.024-.203s.143.168.4.37c.26.204.455.192.455.192.17-.028.244-.184.244-.358V9.65l.11.142c.095.134.257.223.44.223.292 0 .53-.224.53-.5 0-.084-.016-.16-.053-.23l.093-.22.174.173c-.003.02-.004.043-.004.064 0 .29.248.525.554.525.273 0 .514-.18.55-.444.008.004.006-.197.025-.2.023-.002.068.193.076.188.073.21.282.364.53.364.305 0 .553-.236.553-.525 0-.066-.004-.128-.027-.184L21.32 9z" fill="#C8B100"/><path d="M25.132 9.692c.032-.094.003-.187-.064-.207s-.15.038-.18.132c-.033.094-.004.186.063.208s.15-.04.182-.132zM22.72 9.226c.014-.098-.033-.184-.104-.192s-.138.064-.15.162c-.014.098.033.184.104.192s.138-.065.15-.162zM19.92 9.226c-.012-.098.036-.184.106-.192s.138.064.15.162c.013.098-.033.184-.104.192s-.138-.065-.15-.162zM17.51 9.692c-.033-.094-.004-.187.063-.207s.148.038.18.132c.033.094.004.186-.063.208s-.148-.04-.18-.132z" fill="#FFF"/><path d="M18.557 8.083c.12.076.224.202.26.342 0 0 .015-.03.08-.067s.124-.036.124-.036-.018.11-.027.15c-.01.037-.01.155-.036.26s-.072.19-.072.19c-.047-.038-.11-.057-.178-.046s-.12.05-.15.1c0 0-.074-.063-.136-.154s-.103-.2-.127-.234c-.023-.034-.08-.13-.08-.13s.053-.02.128-.007c.077.015.1.038.1.038-.016-.145.032-.296.117-.405z" fill="#C8B100"/><path d="M18.607 9.235c-.038-.03-.067-.072-.076-.122s.002-.098.027-.138c0 0-.1-.05-.207-.08-.08-.02-.224-.02-.267-.022l-.13-.003s.008.02.033.062c.03.052.056.084.056.084-.143.033-.265.127-.342.236.112.077.26.124.406.11 0 0-.013.038-.022.097-.008.048-.007.068-.007.068l.12-.044c.04-.015.175-.06.244-.108.09-.062.168-.14.168-.14zM18.928 9.18c.025-.04.037-.088.027-.138s-.036-.092-.075-.122c0 0 .075-.08.165-.14.07-.047.203-.094.243-.11s.12-.044.12-.044 0 .02-.006.07c-.01.058-.022.096-.022.096.146-.015.295.034.407.11-.077.11-.2.202-.342.235 0 0 .026.032.056.084.026.044.033.063.033.063l-.13-.003c-.043 0-.186 0-.267-.023-.107-.028-.208-.078-.208-.078z" fill="#C8B100"/><path d="M18.503 9.075c0-.128.11-.232.245-.232s.244.104.244.232-.11.232-.244.232-.245-.104-.245-.232z" fill="#C00"/><path d="M21.314 7.712c.118.107.208.266.22.43 0 0 .02-.03.103-.06s.144-.017.144-.017-.043.12-.062.16c-.02.043-.044.173-.094.286-.05.114-.118.2-.118.2-.045-.05-.112-.085-.19-.085s-.142.033-.187.085c0 0-.07-.085-.12-.2s-.075-.242-.094-.284c-.02-.042-.063-.16-.063-.16s.063-.013.144.017c.082.03.103.06.103.06.01-.165.097-.324.214-.43z" fill="#C8B100"/><path d="M21.132 9.006c-.036-.04-.06-.093-.06-.15s.022-.11.058-.15c0 0-.1-.074-.214-.126-.086-.04-.245-.066-.293-.075l-.144-.027s.003.023.02.075c.024.064.046.105.046.105-.166.01-.322.092-.43.2.108.106.264.187.43.198 0 0-.022.04-.045.105-.018.053-.02.076-.02.076l.143-.026c.048-.01.207-.036.293-.076.113-.05.216-.125.216-.125zM21.5 9.006c.036-.04.06-.093.06-.15s-.02-.11-.058-.15c0 0 .1-.074.214-.126.086-.04.246-.066.294-.075l.143-.027s-.003.023-.022.075c-.022.064-.043.105-.043.105.166.01.322.092.43.2-.108.106-.264.187-.43.198 0 0 .022.04.044.105.02.053.023.076.023.076l-.143-.026c-.048-.01-.207-.036-.294-.076-.113-.05-.216-.125-.216-.125zM24.085 8.083c-.12.076-.224.202-.26.342 0 0-.015-.03-.08-.067s-.123-.036-.123-.036.02.11.03.15c.01.037.01.155.034.26s.07.19.07.19c.048-.038.113-.057.18-.046s.118.05.15.1c0 0 .073-.063.135-.154s.105-.2.128-.234c.023-.034.08-.13.08-.13s-.052-.02-.128-.007c-.076.015-.1.038-.1.038.017-.145-.03-.296-.116-.405z" fill="#C8B100"/><path d="M24.034 9.235c.038-.03.067-.072.076-.122s0-.098-.026-.138c0 0 .1-.05.206-.08.08-.02.225-.02.267-.022s.13-.003.13-.003-.007.02-.032.062c-.03.052-.056.084-.056.084.142.033.264.127.34.236-.11.077-.26.124-.405.11 0 0 .013.038.022.097.007.048.007.068.007.068l-.12-.044c-.04-.015-.174-.06-.243-.108-.09-.062-.166-.14-.166-.14zM23.713 9.18c-.025-.04-.036-.088-.028-.138s.037-.092.075-.122c0 0-.076-.08-.166-.14-.07-.047-.203-.094-.243-.11l-.12-.044s0 .02.008.07c.01.058.022.096.022.096-.146-.015-.295.034-.406.11.077.11.2.202.342.235 0 0-.026.032-.056.084-.025.044-.032.063-.032.063l.13-.003c.042 0 .186 0 .266-.023.107-.028.208-.078.208-.078z" fill="#C8B100"/><path d="M23.65 9.075c0-.128.108-.232.243-.232s.245.104.245.232-.11.232-.245.232-.244-.104-.244-.232zM26.385 9.59c-.058-.06-.177-.048-.266.028s-.116.187-.06.248c.06.06.178.048.267-.028s.115-.188.058-.248z" fill="#C00"/><path d="M26.037 9.737c.012-.042.04-.084.08-.12.09-.075.21-.088.267-.027.007.008.015.02.02.028 0 0 .124-.235.27-.313s.396-.06.396-.06c0-.18-.148-.325-.338-.325-.112 0-.217.046-.28.125l-.026-.12s-.153.03-.223.205c-.07.176.006.43.006.43s-.04-.11-.097-.183c-.057-.072-.204-.15-.28-.187s-.155-.09-.155-.09-.003.02-.006.07c-.003.057.002.093.002.093-.14-.018-.304.004-.432.054.055.107.16.208.295.26 0 0-.05.04-.094.085-.037.038-.05.055-.05.055l.145.02c.048.006.207.032.302.025.07-.004.15-.016.196-.025z" fill="#C8B100"/><path d="M16.257 9.59c.058-.06.177-.048.266.028s.115.187.058.248c-.057.06-.176.048-.265-.028s-.115-.188-.058-.248z" fill="#C00"/><path d="M16.605 9.737c-.012-.042-.04-.084-.08-.12-.09-.075-.21-.088-.267-.027-.008.008-.015.02-.02.028 0 0-.124-.235-.27-.313s-.396-.06-.396-.06c0-.18.148-.325.338-.325.112 0 .217.046.28.125l.025-.12s.153.03.223.205c.07.176-.006.43-.006.43s.038-.11.096-.183c.058-.072.204-.15.28-.187s.156-.09.156-.09.003.02.006.07c.003.057-.002.093-.002.093.14-.018.304.004.432.054-.055.107-.158.208-.295.26 0 0 .05.04.094.085.036.038.05.055.05.055l-.145.02c-.048.006-.207.032-.303.025-.07-.004-.15-.016-.197-.025z" fill="#C8B100"/><path d="M21.072 8.857c0-.128.11-.232.244-.232s.245.103.245.232c0 .128-.11.232-.244.232s-.244-.105-.244-.233z" fill="#C00"/><path d="M20.808 5.335c0-.262.224-.474.5-.474s.5.213.5.475c0 .26-.224.473-.5.473s-.5-.212-.5-.473z" fill="#0076BC"/><path d="M21.888 5.27v.256h-1.13V5.27h.42V4.52h-.275v-.257h.274V4.01h.272v.255h.272v.257h-.273v.747h.44z" fill="#C8B100"/><path d="M21.356 25.31c-1.476 0-2.94-.362-4.17-.964-.906-.45-1.507-1.355-1.507-2.39v-3.758h11.33v3.757c0 1.036-.6 1.94-1.508 2.39-1.23.603-2.67.965-4.146.965z" fill="#CCC"/><path d="M21.716 5.27v.256h-.814V5.27h.274V4.52h-.274v-.257h.274V4.01h.272v.255h.273v.257h-.272v.747h.267zM21.333 18.192h5.678v-6.286h-5.677v6.286z" fill="#C8B100"/><path d="M21.337 21.95c0 1.486-1.258 2.69-2.825 2.69s-2.84-1.205-2.84-2.69V18.19h5.665v3.763z" fill="#CCC"/><path d="M16.91 24.17c.178.094.42.25.68.313l-.015-6.427h-.663v6.114z" fill="#C00"/><path d="M15.664 21.9c.017.793.332 1.382.647 1.768v-5.582h-.638l-.008 3.813zM18.173 24.624c.26.026.453.02.663 0v-6.568h-.663v6.568z" fill="#C7B300"/><path d="M19.42 24.483c.26-.052.552-.214.68-.297v-6.13h-.663l-.017 6.427z" fill="#C7B500"/><path d="M15.673 18.192h5.662v-6.286h-5.662v6.286z" fill="#C7B300"/><path d="M20.716 23.607c.276-.245.536-.803.63-1.44l.016-4.11H20.7l.016 5.55z" fill="#C00"/><path d="M27.016 18.19v3.762c0 1.485-1.273 2.688-2.84 2.688s-2.84-1.204-2.84-2.688V18.19h5.68z" fill="#C7B300"/><path d="M22.37 21.03c.01.018.014.037.014.058 0 .07-.06.125-.132.125s-.132-.055-.132-.125c0-.02.005-.04.014-.057h-.184c-.004.018-.006.037-.006.058 0 .13.09.24.215.278v.453h.192v-.456c.09-.03.16-.097.19-.182h.52v-.153h-.693zm2.548 0v.152h-.467c-.006.02-.018.04-.03.058l.543.616-.146.118-.54-.617-.025.01v1.02h-.192v-1.024c-.008-.002-.015-.006-.022-.01l-.562.62-.146-.117.562-.623c-.01-.016-.017-.033-.023-.05h-.484v-.154h1.533zm.31 0v.152h.52c.032.086.102.153.192.182v.456h.193v-.454c.125-.037.215-.148.215-.278 0-.02-.002-.04-.007-.06h-.183c.01.02.014.04.014.06 0 .07-.057.125-.13.125s-.133-.055-.133-.125c0-.02.005-.04.014-.057h-.692zm-.784 2.598c.152-.024.29-.066.43-.124l.094.16c-.16.07-.33.118-.508.145-.03.13-.153.23-.3.23s-.272-.098-.302-.23c-.188-.025-.367-.073-.534-.145l.095-.16c.144.06.3.1.46.124.034-.075.096-.132.178-.158l.002-.79h.19l.003.788c.085.025.156.083.192.16zm-1.297-.265l-.094.162c-.16-.1-.305-.224-.428-.363-.098.03-.21.012-.293-.056-.13-.105-.145-.29-.034-.41l.016-.018c-.078-.176-.13-.366-.15-.564h.194c.015.17.058.332.123.483.055-.008.113 0 .165.018l.483-.534.145.118-.48.533c.065.1.062.227-.012.324.107.118.23.223.366.31zm-.716-.56c.048-.053.132-.06.187-.014s.062.123.015.175c-.048.052-.13.06-.186.014s-.062-.125-.015-.177zm-.242-.528l-.198-.044-.028-.5.197-.066v.288c0 .112.01.218.028.324zm.165-.623l.198.046s.01.323.007.25c-.005-.085.022.252.022.252l-.2.066c-.02-.103-.027-.208-.027-.316v-.3zm.65 1.607c.167.13.36.234.57.3l.044-.19c-.172-.054-.33-.133-.47-.236l-.143.125zm-.094.164c.168.127.36.23.568.3l-.148.137c-.166-.06-.322-.14-.465-.237l.044-.2zm.256-1.107l.19.08.344-.383-.113-.163-.42.467zm-.146-.118l-.113-.165.345-.383.188.08-.42.466zm2.125 1.163l.094.162c.16-.1.304-.224.427-.363.098.03.21.012.293-.056.13-.105.144-.29.034-.41l-.016-.018c.078-.176.13-.366.148-.564h-.192c-.015.17-.058.332-.124.483-.055-.008-.112 0-.165.018l-.482-.534-.146.118.48.533c-.065.1-.063.227.01.324-.105.118-.227.223-.364.31zm.715-.56c-.047-.053-.13-.06-.186-.014s-.062.123-.015.175c.046.052.13.06.185.014s.062-.125.014-.177zm.244-.528l.198-.044.028-.5-.196-.066v.288c0 .112-.01.218-.03.324zm-.165-.623l-.2.046s-.01.323-.005.25c.005-.085-.022.252-.022.252l.2.066c.02-.103.026-.208.026-.316v-.3zm-.652 1.607c-.167.13-.36.234-.57.3l-.043-.19c.17-.054.33-.133.47-.236l.142.125zm.096.164c-.17.127-.362.23-.57.3l.15.137c.165-.06.32-.14.464-.237l-.044-.2zm-.258-1.107l-.19.08-.344-.383.113-.163.42.467zm.146-.118l.113-.165-.345-.383-.188.08.42.466zM22.91 21.18l.057.188h.532l.056-.188h-.647zm2.483 0l-.058.188h-.53l-.058-.188h.647zm-1.366 2.566c0-.07.06-.125.132-.125s.13.056.13.125c0 .07-.06.125-.13.125s-.133-.056-.133-.125zm.224-.91l.2-.057v-.502l-.2-.055v.613zm-.192 0l-.198-.056v-.503l.198-.056v.613z" fill="#C00"/><path d="M21.95 21.033c.023-.105.105-.19.21-.222v-.62h.19v.624c.094.03.167.1.196.19h.516v.028h-.693c-.022-.038-.067-.067-.12-.067s-.095.028-.117.07l-.184-.003zm1.434 0v-.028h.48c.004-.016.01-.03.02-.045l-.59-.66.144-.117.584.648.03-.012v-.864h.192v.858l.03.007.57-.65.147.116-.572.647c.015.022.025.046.033.07h.466v.03h-1.533zm2.538 0c.02-.038.066-.067.118-.067s.096.028.118.07l.184-.003c-.023-.105-.104-.19-.21-.222v-.62h-.19v.625c-.095.03-.168.1-.197.19h-.516v.028h.692zm-3.54-1.753l.71.797.146-.118-.715-.795c.014-.02.024-.045.033-.07h.52v-.18h-.52c-.04-.12-.158-.203-.295-.203-.17 0-.307.13-.307.292 0 .128.087.237.208.276v.615h.19v-.61c.01-.003.024-.003.032-.006zm3.752.004l-.002.613h-.19v-.615c-.016-.005-.03-.01-.044-.017l-.708.8-.146-.117.72-.814-.015-.037h-.524v-.18h.522c.04-.12.156-.203.293-.203.17 0 .31.13.31.292 0 .13-.09.242-.215.28zm-1.887-.002l-.002.377h-.19v-.375c-.096-.028-.17-.1-.202-.19h-.467v-.18h.467c.04-.118.155-.202.292-.202s.253.084.293.202h.476v.18h-.477c-.03.088-.1.158-.19.187zm-2.086.457l-.197.055v.504l.198.054v-.615zm.193 0l.198.055v.504l-.197.054v-.615zm3.587 0l-.198.055v.504l.198.054v-.615zm.192 0l.198.055v.504l-.198.054v-.615zm-3.002.1l.19-.08.344.383-.113.164-.42-.467zm-.146.118l-.113.164.346.383.188-.08-.42-.468zm2.167-.134l-.188-.08-.342.388.115.163.416-.47zm.15.118l.113.163-.342.387-.188-.08.416-.47zm-2.39 1.063l.057-.188h.532l.056.188h-.647zm-.78-2c0-.07.058-.125.13-.125s.133.056.133.125c0 .07-.06.125-.132.125s-.13-.056-.13-.125zm1.42.09l-.057.19h-.53l-.06-.19h.648zm0-.182l-.057-.188h-.53l-.06.188h.648zm1.843 2.092l-.058-.188h-.53l-.058.188h.647zm.516-2c0-.07.058-.125.13-.125s.133.056.133.125c0 .07-.06.125-.132.125s-.13-.056-.13-.125zm-1.896 0c0-.07.06-.125.132-.125s.132.056.132.125c0 .07-.06.125-.132.125s-.132-.056-.132-.125zm.736.09l.058.19h.53l.06-.19h-.648zm0-.182l.058-.188h.53l.06.188h-.648zm-.694.59l-.198.055v.504l.198.055v-.615zm.19 0l.198.055v.504l-.198.055v-.615z" fill="#C8B100"/><path d="M23.85 21.09c0-.16.138-.292.31-.292s.307.13.307.293c0 .162-.138.293-.308.293s-.31-.13-.31-.292z" fill="#C8B100"/><path d="M24.227 13.454l.006-.07.01-.04s-.182.016-.277-.01c-.096-.028-.182-.067-.27-.143s-.125-.122-.19-.132c-.152-.024-.27.045-.27.045s.115.042.2.148c.087.107.18.16.22.174.068.02.3.006.364.008s.207.022.207.022z" fill="#05906F"/><path d="M25.077 13.2s0 .08.008.158c.008.075-.024.14-.012.18s.018.076.034.106c.015.03.024.106.024.106l-.083-.06-.068-.05.01.116c.005.035.026.1.06.14s.097.1.117.15c.02.05.017.162.017.162s-.053-.085-.098-.1c-.045-.016-.143-.07-.143-.07s.09.09.09.174c0 .085-.037.18-.037.18s-.04-.076-.093-.126-.127-.1-.127-.1.058.13.058.22c0 .088-.016.278-.016.278s-.045-.073-.09-.11c-.045-.033-.098-.064-.115-.087s.053.073.06.13c.01.06.037.266.218.53.107.156.27.426.62.337s.222-.56.148-.78c-.074-.22-.11-.465-.106-.55s.065-.336.057-.383c-.01-.045-.028-.225.015-.37.045-.15.082-.208.106-.27s.045-.097.053-.15c.008-.055.008-.156.008-.156s.066.12.083.163c.016.043.016.17.016.17s.01-.127.11-.19c.097-.06.21-.127.24-.162s.037-.058.037-.058-.008.217-.07.302c-.04.054-.2.235-.2.235s.083-.03.14-.034c.057-.003.098 0 .098 0s-.07.055-.16.186c-.09.13-.052.143-.117.25s-.12.113-.2.18c-.123.097-.057.49-.04.548s.227.538.232.653c.004.116.025.375-.18.54-.132.11-.347.11-.396.14s-.146.127-.146.328c0 .202.073.232.13.282s.13.023.147.062c.017.037.025.06.05.084s.04.05.032.092c-.008.043-.102.14-.135.21-.033.07-.098.25-.098.278s-.008.112.02.155c0 0 .102.118.032.14-.045.016-.09-.027-.11-.022-.06.016-.093.054-.11.05-.04-.008-.04-.028-.045-.085s0-.08-.02-.08c-.024 0-.036.02-.04.05s-.004.1-.033.1c-.03 0-.07-.05-.094-.06s-.094-.024-.098-.055c-.004-.03.04-.097.086-.108s.087-.034.058-.058c-.03-.023-.057-.023-.085 0s-.09.004-.086-.03c.004-.036.012-.078.008-.098s-.053-.058.012-.093c.066-.033.094.032.16.02s.097-.034.122-.072c.024-.038.02-.12-.026-.17s-.09-.058-.106-.09c-.016-.03-.04-.103-.04-.103s.01.135.003.155c-.007.02-.003.1-.003.1s-.045-.05-.082-.088c-.036-.04-.073-.155-.073-.155s-.004.108-.004.15c0 .043.05.082.033.098s-.093-.08-.113-.097c-.02-.016-.086-.066-.115-.12s-.05-.13-.057-.16c-.008-.026-.022-.146-.008-.177l.053-.126h-.16c-.084 0-.146-.027-.178.03s-.016.175.024.326c.04.15.065.224.053.25s-.066.09-.086.1c-.02.013-.078.01-.102-.002s-.065-.03-.143-.03c-.078 0-.127.003-.156-.004-.03-.008-.098-.043-.13-.035s-.09.036-.075.08c.024.07-.025.085-.058.08s-.06-.015-.102-.026c-.04-.012-.102 0-.094-.047s.025-.05.045-.085c.022-.035.03-.058.006-.06-.03-.003-.057-.006-.08.012s-.057.057-.086.043c-.03-.015-.05-.05-.05-.12s-.078-.137-.007-.134c.07.003.16.055.176.015s.005-.057-.033-.088c-.038-.03-.086-.048-.035-.087s.064-.04.083-.06c.02-.02.046-.09.082-.072.07.034.003.083.073.16s.115.107.233.095c.118-.012.15-.027.15-.06s-.01-.093-.013-.118c-.003-.024.016-.112.016-.112s-.054.034-.07.066c-.015.034-.047.09-.047.09s-.014-.067-.01-.122c.002-.032.014-.09.012-.1-.003-.03-.025-.106-.025-.106s-.02.082-.032.106c-.013.024-.02.12-.02.12s-.074-.064-.053-.174c.016-.085-.013-.196.013-.233s.085-.183.232-.19c.147-.006.26.006.313.004s.233-.036.233-.036-.335-.172-.41-.224c-.078-.05-.196-.184-.234-.244s-.074-.178-.074-.178-.06.003-.115.033c-.053.03-.107.076-.14.11s-.082.12-.082.12.01-.107.01-.14c0-.033-.007-.097-.007-.097s-.037.145-.114.2c-.077.054-.166.13-.166.13s.01-.082.01-.1c0-.018.02-.112.02-.112s-.055.08-.138.097c-.083.015-.204.012-.214.063s.022.12.003.157c-.018.036-.06.06-.06.06s-.048-.04-.09-.042c-.04-.002-.08.02-.08.02s-.034-.047-.022-.077c.013-.03.077-.075.06-.094s-.066.005-.098.02-.1.03-.093-.02.022-.082.006-.12c-.016-.035-.006-.06.02-.068s.126.003.136-.02c.008-.024-.026-.055-.094-.07s-.1-.054-.064-.088.045-.042.06-.072.023-.085.084-.057c.06.027.047.093.112.115.063.022.213-.01.245-.027s.134-.094.17-.112c.034-.017.18-.126.18-.126s-.085-.06-.117-.09-.09-.103-.117-.118-.17-.07-.218-.072-.195-.054-.195-.054.067-.022.09-.04.072-.064.098-.06l.03.002s-.136-.006-.164-.015c-.028-.01-.11-.06-.142-.06s-.096.01-.096.01.086-.053.156-.065c.07-.012.124-.01.124-.01s-.108-.03-.134-.065c-.025-.036-.05-.09-.07-.115s-.032-.064-.067-.066c-.034-.003-.095.043-.13.04s-.06-.025-.064-.076c-.002-.052 0-.034-.012-.06s-.064-.09-.016-.106c.048-.015.15.01.16-.01s-.054-.07-.096-.093c-.04-.02-.108-.056-.073-.086s.07-.042.088-.07c.02-.026.04-.102.083-.078s.1.142.132.133c.032-.01.035-.095.03-.13s0-.1.03-.095c.032.006.057.048.11.052s.126-.012.12.024c-.006.037-.035.082-.07.122s-.05.118-.028.17c.022.05.08.132.13.165s.147.058.208.097c.06.04.2.15.25.163s.095.036.095.036.054-.024.128-.024c.073 0 .242.01.306-.016s.148-.072.122-.13c-.025-.057-.166-.11-.153-.153s.063-.047.15-.05c.085-.004.203.014.225-.107s.03-.19-.092-.217c-.12-.027-.21-.03-.233-.118s-.045-.108-.02-.133c.026-.024.07-.036.16-.042s.19-.006.22-.028c.03-.02.035-.078.07-.103s.173-.045.173-.045.164.08.316.193c.135.102.258.252.258.252z" fill="#DB4446"/><path d="M23.902 13.114s-.02-.054-.022-.07c-.003-.015-.013-.033-.013-.033s.1 0 .096.03c-.003.03-.032.03-.038.043s-.022.03-.022.03z" fill="#F38FB0"/><path d="M24.355 12.956l-.007-.048s.086 0 .128.03c.064.045.105.115.102.118-.01.01-.06-.03-.096-.042 0 0-.025.006-.05.006s-.04-.012-.043-.024c-.004-.012.002-.033.002-.033l-.038-.006zM22.642 13.095s.054.04.096.045c.04.006.086.006.093.006s.02-.06.014-.102c-.022-.136-.147-.166-.147-.166s.037.083.02.12c-.026.055-.074.098-.074.098z"/><path d="M22.383 13.214s-.048-.088-.15-.076c-.102.012-.17.09-.17.09s.114-.003.14.016c.043.027.055.097.055.097s.06-.035.08-.06c.02-.024.044-.066.044-.066zM22.26 13.567s-.087.012-.135.067c-.048.054-.04.157-.04.157s.056-.06.107-.06c.05 0 .13.02.13.02s-.024-.065-.024-.092c0-.027-.038-.09-.038-.09zM23.905 13.554l.038-.06.038.055-.075.005z" fill="#DB4446"/><path d="M23.997 13.55l.045-.06.048.055-.093.006zM23.956 13.18l.093.034-.084.042-.01-.075zM24.067 13.21l.083.022-.067.05-.016-.07zM22.55 14.71s-.05-.052-.132-.037c-.083.015-.137.11-.137.11s.07-.02.113-.01c.04.01.07.05.07.05s.038-.032.05-.05c.014-.018.036-.064.036-.064z"/><path d="M22.453 15.044s-.07-.012-.13.036c-.062.05-.065.142-.065.142s.058-.05.102-.042c.044.006.1.03.1.03l.012-.072c.01-.042-.02-.094-.02-.094zM22.616 15.352s-.005.09.038.145c.045.058.128.067.128.067s-.028-.06-.032-.09c-.006-.046.038-.086.038-.086s-.04-.042-.082-.042-.09.006-.09.006zM23.446 16.147s-.057-.072-.137-.07c-.08.003-.164.078-.164.078s.1-.008.124.024c.026.033.05.074.05.074s.046-.024.065-.04c.02-.014.06-.068.06-.068zM23.2 16.464s-.106-.015-.157.04c-.05.053-.048.153-.048.153s.064-.07.12-.063c.06.006.122.036.122.036l-.016-.088c-.005-.027-.02-.078-.02-.078zM23.426 16.8s-.05.07-.013.13c.038.057.118.084.118.084s-.027-.042-.015-.09c.01-.04.077-.092.077-.092l-.166-.033zM24.826 16.935s-.092-.022-.143.01c-.05.03-.092.156-.092.156s.084-.068.144-.06c.06.01.105.034.105.034s.008-.052.002-.087c-.004-.022-.016-.05-.016-.05zM24.87 17.273s-.07.072-.044.133c.026.06.07.124.07.124s-.003-.09.026-.114c.04-.036.118-.043.118-.043s-.06-.054-.08-.06c-.02-.006-.09-.04-.09-.04zM25.222 17.38s-.035.086.032.144c.067.058.124.064.124.064s-.05-.09-.035-.14c.016-.05.06-.08.06-.08s-.083-.028-.096-.024c-.013.003-.086.036-.086.036zM21.63 23.642c.235.07.355.247.355.453 0 .268-.26.472-.598.472s-.61-.203-.61-.472c0-.203.112-.43.346-.445 0 0-.007-.02-.027-.056l-.072-.075s.09-.018.14.002c.053.02.087.052.087.052s.026-.048.06-.085c.035-.038.08-.06.08-.06s.052.043.07.072c.016.03.027.066.027.066s.048-.04.09-.055c.04-.016.094-.03.094-.03s-.014.053-.024.08c-.01.025-.016.08-.016.08z" fill="#DB4446"/><path d="M21.337 24.857s-.45-.303-.643-.343c-.25-.052-.528-.01-.65-.016.004.004.146.105.208.167s.27.186.387.216c.363.092.698-.022.698-.022z" fill="#FDEAAB"/><path d="M21.465 24.884s.288-.3.588-.34c.356-.05.588.03.727.065.003 0-.114.055-.176.097s-.223.177-.468.18c-.245.004-.516-.026-.56-.02l-.11.017zM21.38 24.514c-.114-.105-.184-.254-.184-.42s.07-.313.184-.418c.113.105.182.254.182.42s-.07.313-.183.418z" fill="#05906F"/><path d="M21.265 25.127s.07-.17.076-.32c.007-.122-.016-.244-.016-.244h.09s.045.13.045.245c0 .114-.022.267-.022.267s-.062.01-.083.02c-.02.01-.09.032-.09.032z" fill="#C00"/><path d="M26.943 8.876c0-.065.055-.117.124-.117s.123.05.123.116c0 .065-.055.117-.123.117s-.124-.052-.124-.117z" fill="#05906F"/><path d="M27.112 8.575c0-.065.055-.117.124-.117s.123.052.123.117-.056.117-.124.117-.124-.052-.124-.117zM27.225 8.23c0-.066.056-.118.124-.118s.122.053.122.117-.055.116-.123.116-.125-.053-.125-.117zM27.24 7.857c0-.065.055-.117.123-.117s.124.052.124.117-.055.117-.124.117-.123-.052-.123-.117zM27.147 7.49c0-.065.055-.117.123-.117s.124.052.124.117-.055.117-.124.117-.123-.052-.123-.117zM26.957 7.157c0-.065.055-.117.124-.117s.125.052.125.117-.055.117-.124.117-.123-.053-.123-.117zM26.703 6.885c0-.065.055-.117.123-.117s.124.053.124.117c0 .065-.055.117-.124.117s-.123-.053-.123-.117zM26.408 6.657c0-.065.055-.117.124-.117s.123.053.123.117-.055.117-.123.117-.124-.053-.124-.117zM26.056 6.472c0-.065.055-.117.123-.117s.123.052.123.117-.055.117-.124.117-.124-.054-.124-.118zM25.69 6.34c0-.066.056-.118.125-.118s.124.053.124.117-.057.116-.125.116-.124-.053-.124-.117zM25.282 6.266c0-.065.055-.117.123-.117s.124.052.124.116-.056.117-.125.117c-.068 0-.123-.053-.123-.117zM24.894 6.245c0-.065.055-.117.124-.117s.124.052.124.117-.055.117-.124.117-.124-.053-.124-.117zM24.513 6.258c0-.065.056-.117.124-.117s.124.054.124.118c0 .065-.054.117-.123.117s-.124-.053-.124-.117zM24.133 6.258c0-.065.055-.117.123-.117s.123.054.123.118c0 .065-.056.117-.124.117s-.123-.053-.123-.117zM24.324 6.585c0-.065.055-.117.123-.117s.123.053.123.117c0 .065-.055.117-.123.117s-.123-.053-.123-.117zM24.4 6.946c0-.065.056-.117.125-.117s.124.052.124.116-.056.117-.125.117-.124-.053-.124-.117zM24.414 7.305c0-.065.055-.117.124-.117s.123.052.123.117-.054.117-.122.117-.124-.053-.124-.117zM24.302 7.632c0-.065.055-.117.123-.117s.124.053.124.117c0 .065-.056.117-.125.117s-.123-.053-.123-.118zM24.092 7.933c0-.065.056-.117.124-.117s.123.053.123.117-.056.117-.124.117-.124-.053-.124-.117zM23.845 6.032c0-.065.055-.117.124-.117s.122.052.122.117-.055.117-.123.117-.125-.054-.125-.118zM23.507 5.845c0-.065.055-.117.124-.117s.124.053.124.117-.055.117-.123.117-.123-.053-.123-.117zM23.134 5.733c0-.065.055-.117.124-.117s.124.052.124.117-.055.117-.124.117-.124-.053-.124-.117zM22.746 5.666c0-.065.055-.117.123-.117s.123.052.123.116-.055.117-.124.117-.124-.053-.124-.117zM22.367 5.672c0-.065.055-.117.123-.117s.124.053.124.117c0 .065-.055.117-.124.117s-.123-.053-.123-.118zM21.973 5.74c0-.066.055-.118.124-.118s.124.052.124.117c0 .064-.054.116-.123.116s-.124-.052-.124-.117zM21.607 5.865c0-.065.055-.117.123-.117s.124.053.124.117-.055.117-.124.117-.123-.053-.123-.117zM15.416 8.876c0-.065.055-.117.123-.117s.123.05.123.116c0 .065-.055.117-.124.117s-.124-.052-.124-.117zM15.247 8.575c0-.065.055-.117.124-.117s.125.052.125.117-.055.117-.124.117-.123-.052-.123-.117zM15.134 8.23c0-.066.055-.118.124-.118s.124.053.124.117-.055.116-.124.116-.124-.053-.124-.117zM15.12 7.857c0-.065.055-.117.124-.117s.124.052.124.117-.055.117-.124.117-.124-.052-.124-.117zM15.212 7.49c0-.065.055-.117.123-.117s.124.052.124.117-.056.117-.125.117-.123-.052-.123-.117zM15.402 7.157c0-.065.055-.117.124-.117s.123.052.123.117-.056.117-.124.117-.124-.053-.124-.117zM15.656 6.885c0-.065.055-.117.124-.117s.123.053.123.117c0 .065-.055.117-.123.117s-.124-.053-.124-.117zM15.95 6.657c0-.065.056-.117.125-.117s.124.053.124.117-.056.117-.125.117-.124-.053-.124-.117zM16.303 6.472c0-.065.055-.117.124-.117s.124.052.124.117-.054.117-.123.117-.124-.054-.124-.118zM16.67 6.34c0-.066.054-.118.122-.118s.124.053.124.117-.055.116-.124.116-.123-.053-.123-.117zM17.078 6.266c0-.065.055-.117.123-.117s.124.052.124.116-.055.117-.123.117c-.067 0-.122-.053-.122-.117zM17.465 6.245c0-.065.055-.117.124-.117s.122.052.122.117-.055.117-.123.117-.125-.053-.125-.117zM17.846 6.258c0-.065.056-.117.124-.117s.124.054.124.118c0 .065-.055.117-.124.117s-.124-.053-.124-.117zM18.226 6.258c0-.065.055-.117.124-.117s.124.054.124.118c0 .065-.055.117-.124.117s-.124-.053-.124-.117zM18.037 6.585c0-.065.055-.117.123-.117s.124.053.124.117c0 .065-.055.117-.124.117s-.123-.053-.123-.117zM17.96 6.946c0-.065.054-.117.123-.117s.123.052.123.116-.055.117-.123.117-.124-.053-.124-.117zM17.944 7.305c0-.065.055-.117.124-.117s.123.052.123.117-.054.117-.122.117-.124-.053-.124-.117zM18.058 7.632c0-.065.055-.117.123-.117s.125.053.125.117c0 .065-.055.117-.124.117s-.122-.053-.122-.118zM18.267 7.933c0-.065.056-.117.123-.117s.124.053.124.117-.055.117-.124.117c-.068 0-.123-.053-.123-.117zM18.515 6.032c0-.065.055-.117.123-.117s.124.052.124.117-.055.117-.124.117-.123-.054-.123-.118zM18.852 5.845c0-.065.055-.117.123-.117s.124.053.124.117-.056.117-.125.117c-.068 0-.123-.053-.123-.117zM19.225 5.733c0-.065.056-.117.124-.117s.123.052.123.117-.055.117-.124.117-.125-.053-.125-.117zM19.613 5.666c0-.065.056-.117.124-.117s.124.052.124.116-.054.117-.123.117-.124-.053-.124-.117zM19.992 5.672c0-.065.055-.117.123-.117s.123.053.123.117c0 .065-.055.117-.123.117s-.123-.053-.123-.118zM20.387 5.74c0-.066.055-.118.123-.118s.124.052.124.117c0 .064-.055.116-.124.116s-.123-.052-.123-.117zM20.752 5.865c0-.065.055-.117.124-.117S21 5.8 21 5.865s-.055.117-.124.117-.124-.053-.124-.117zM20.116 17.32h-3.2v-.806h.457v-1.647h-.212v-.734h.352v-.518h-.155v-.37h.147v.107h.155v-.108h.17v.108h.155v-.108h.147v.37h-.163v.52h.318v-1.107H18.1v-.425h.14v.108h.17v-.108h.23v.108h.18v-.108h.138v.425h-.212v1.106h.31v-.518H18.9v-.37h.14v.107h.162v-.108h.172v.108h.155v-.108h.146v.37h-.163v.52h.376v.733h-.222v1.647h.45v.805z" fill="#FFF"/><path d="M17.694 15.415c0-.077.06-.14.138-.14s.14.063.14.14v.32h-.278v-.32z" fill="#C8B000"/><path d="M19.068 15.415c0-.077.06-.14.138-.14s.14.063.14.14v.32h-.28v-.32zM18.215 16.822c0-.16.132-.29.3-.29s.31.13.31.29v.498h-.61v-.498zM19.515 18.165c0-1.14.82-2.064 1.834-2.064s1.833.925 1.833 2.065-.82 2.064-1.834 2.064-1.835-.925-1.835-2.065z" fill="#0076BC"/><path d="M20.06 18.16c0-.835.577-1.512 1.29-1.512s1.29.677 1.29 1.513c0 .837-.577 1.515-1.29 1.515s-1.29-.678-1.29-1.514z" fill="#C00"/><path d="M20.74 17.12s-.152.167-.152.322c0 .156.065.286.065.286-.023-.062-.086-.106-.16-.106-.092 0-.168.07-.168.16 0 .026.016.066.027.088l.055.11c.018-.04.06-.063.11-.063.068 0 .122.05.122.114 0 .01-.002.02-.005.03h-.138v.116h.123l-.09.18.12-.046.09.103.096-.103.12.047-.09-.18h.123v-.118h-.14c-.002-.01-.002-.02-.002-.03 0-.062.053-.113.12-.113.05 0 .093.023.11.064l.056-.11c.012-.022.028-.062.028-.088 0-.088-.075-.16-.17-.16-.073 0-.135.044-.158.106 0 0 .064-.13.064-.286s-.156-.323-.156-.323z" fill="#0076BC"/><path d="M20.497 18.177h.49v-.117h-.49v.117zM21.94 17.12s-.152.167-.152.322c0 .156.064.286.064.286-.023-.062-.085-.106-.16-.106-.092 0-.168.07-.168.16 0 .026.016.066.027.088l.056.11c.02-.04.06-.063.11-.063.068 0 .122.05.122.114 0 .01 0 .02-.003.03h-.138v.116h.123l-.09.18.12-.046.092.103.094-.103.12.047-.09-.18h.123v-.118h-.138c-.003-.01-.003-.02-.003-.03 0-.062.053-.113.12-.113.05 0 .093.023.11.064l.056-.11c.012-.022.027-.062.027-.088 0-.088-.076-.16-.17-.16-.072 0-.135.044-.158.106 0 0 .065-.13.065-.286s-.156-.323-.156-.323z" fill="#C8B100"/><path d="M21.696 18.177h.49v-.117h-.49v.117zM21.34 18.15s-.153.17-.153.325.065.286.065.286c-.023-.06-.086-.105-.16-.105-.093 0-.17.07-.17.16 0 .026.017.066.028.088l.055.11c.02-.04.06-.063.11-.063.068 0 .122.05.122.115 0 .01 0 .02-.004.028h-.137v.117h.123l-.092.18.12-.047.092.103.095-.103.12.048-.09-.18h.122v-.117h-.137c-.003-.01-.003-.018-.003-.028 0-.063.054-.115.12-.115.05 0 .093.023.112.064l.054-.11c.012-.023.027-.063.027-.09 0-.087-.075-.16-.168-.16-.074 0-.136.045-.16.107 0 0 .065-.13.065-.285s-.157-.324-.157-.324z" fill="#C8B100"/><path d="M21.096 19.21h.49v-.118h-.49v.117zM25.01 12.716l-.032.002c0 .004-.016.027-.03.04-.03.028-.072.03-.097.008-.01-.012-.017-.03-.015-.046-.02.01-.04.01-.058 0-.03-.018-.036-.058-.015-.09.003-.007.007-.016.012-.02l-.002-.037-.04.01-.01.02c-.025.03-.06.036-.08.02-.008-.008-.014-.03-.014-.03s-.01.01-.02.012c-.06.015-.085-.118-.086-.153l-.02.028s.018.08.01.147c-.01.067-.034.135-.034.135.084.022.21.09.335.187s.224.2.264.272c0 0 .065-.036.133-.058s.153-.023.153-.023l.024-.023c-.036.005-.178.01-.176-.05.002-.01.01-.02.01-.02 0 .002-.024 0-.034-.007-.02-.014-.02-.05.003-.077l.02-.014v-.04l-.038.006c-.003.005-.012.01-.017.015-.03.027-.073.03-.097.005-.014-.014-.02-.033-.013-.053-.017.005-.036.004-.05-.005-.03-.018-.036-.06-.013-.09.01-.017.03-.035.035-.037l-.008-.034z" fill="#C8B100"/><path d="M24.758 12.793c.006-.007.017-.006.026 0s.01.018.006.024c-.005.006-.017.006-.026 0s-.01-.018-.006-.025z" fill="#C8B100"/><path d="M24.864 12.883l-.037-.028c-.007-.005-.01-.014-.005-.018s.013-.004.02 0l.037.03.037.027c.006.005.01.013.005.018s-.014.004-.02 0l-.037-.03zM24.668 12.748l-.03-.017c-.006-.003-.01-.012-.007-.017s.013-.007.02-.002l.03.018.03.017c.006.004.01.012.007.018s-.012.006-.02.002l-.028-.017zM24.55 12.668c.007-.006.018-.006.027 0s.01.02.006.025c-.006.006-.017.006-.026 0s-.01-.018-.006-.024zM24.983 12.965c.006-.006.003-.017-.006-.024s-.02-.006-.026 0c-.004.007-.002.018.007.025s.02.007.026 0zM25.048 13.04l.024.023c.006.006.015.008.02.003s.004-.012 0-.018l-.025-.024-.025-.024c-.006-.006-.015-.007-.02-.003s-.005.012.002.018l.024.024zM25.154 13.13c.006-.006.003-.016-.006-.023s-.02-.007-.026 0c-.006.007-.003.017.006.024s.02.008.026 0zM24.845 12.45l-.067.002-.013.098.007.016h.017l.084-.058-.03-.057z"/><path d="M24.663 12.504l-.002.06.105.014.016-.007v-.016l-.06-.08-.056.03z" fill="#C8B100"/><path d="M24.878 12.627l-.055.03-.06-.08-.002-.016.017-.006.104.012-.002.06z" fill="#C8B100"/><path d="M24.744 12.55c.01-.014.03-.02.044-.01s.02.028.01.043c-.008.015-.028.02-.043.01s-.02-.027-.01-.04zM24.5 12.45s-.014-.052-.028-.08c-.01-.022-.044-.05-.044-.05.003-.005.047-.02.098.01.042.036-.003.1-.003.1s-.01.014-.022.02z" fill="#C8B100"/><path d="M24.618 12.485l-.047.04-.076-.066.007-.01.004-.017.104-.008.01.06z" fill="#C8B100"/><path d="M24.487 12.443c.006-.017.02-.027.032-.023s.016.02.01.037c-.006.017-.02.026-.032.023-.012-.004-.017-.02-.01-.037zM25.1 12.61l-.066-.007-.028.096.005.015h.018l.093-.045-.02-.06z" fill="#C8B100"/><path d="M24.912 12.64l-.01.06.1.027.018-.005v-.016l-.047-.09-.06.024z" fill="#C8B100"/><path d="M25.107 12.79l-.06.023-.048-.088v-.017l.017-.004.1.026-.01.06z" fill="#C8B100"/><path d="M24.986 12.696c.01-.014.032-.015.045-.004s.017.03.006.043c-.01.013-.032.015-.046.004s-.016-.03-.005-.044zM25.323 12.817l.012.063-.1.033-.016-.004-.003-.017.04-.09.066.014z" fill="#C8B100"/><path d="M25.305 12.997l-.063.014-.035-.093.004-.016h.018l.096.038-.02.06z" fill="#C8B100"/><path d="M25.134 12.823l-.02.058.096.04.018-.002.003-.016-.033-.093-.063.014z" fill="#C8B100"/><path d="M25.24 12.932c.013-.012.014-.03.002-.044s-.033-.013-.046-.002c-.013.012-.014.03 0 .044s.032.013.045.002zM25.396 13.136c0 .002.056.003.09.01.022.005.058.03.058.03.006-.004.013-.047-.032-.088-.044-.032-.1.024-.1.024s-.013.013-.016.024z" fill="#C8B100"/><path d="M25.334 13.034l-.032.053.085.058.01-.01.014-.004-.012-.098-.064.002z" fill="#C8B100"/><path d="M25.405 13.147c.016-.01.023-.025.017-.035s-.025-.012-.04-.003c-.017.008-.024.023-.017.034s.024.01.04.002z" fill="#C8B100"/></svg>